<svg width="260" height="260" viewBox="0 0 260 260" fill="none" xmlns="http://www.w3.org/2000/svg">
<rect width="260" height="260" fill="white"/>
<path d="M108.767 156.457H58.1318L46.7598 188H30.3242L76.4766 67.1406H90.4219L136.657 188H120.305L108.767 156.457ZM62.9463 143.342H104.035L83.4492 86.8135L62.9463 143.342ZM205.969 188C205.083 186.229 204.364 183.075 203.811 178.537C196.672 185.952 188.15 189.66 178.244 189.66C169.39 189.66 162.113 187.17 156.413 182.189C150.769 177.154 147.946 170.79 147.946 163.098C147.946 153.745 151.488 146.496 158.571 141.35C165.71 136.148 175.726 133.547 188.62 133.547H203.562V126.491C203.562 121.123 201.957 116.862 198.747 113.708C195.537 110.498 190.806 108.894 184.553 108.894C179.074 108.894 174.481 110.277 170.773 113.044C167.066 115.811 165.212 119.159 165.212 123.088H149.772C149.772 118.605 151.35 114.289 154.504 110.139C157.714 105.933 162.03 102.613 167.453 100.178C172.932 97.7428 178.936 96.5254 185.466 96.5254C195.814 96.5254 203.921 99.1263 209.787 104.328C215.653 109.475 218.697 116.586 218.918 125.661V166.999C218.918 175.244 219.969 181.802 222.072 186.672V188H205.969ZM180.485 176.296C185.3 176.296 189.865 175.051 194.182 172.561C198.498 170.07 201.625 166.833 203.562 162.849V144.421H191.525C172.71 144.421 163.303 149.927 163.303 160.939C163.303 165.754 164.908 169.517 168.117 172.229C171.327 174.94 175.45 176.296 180.485 176.296Z" fill="black"/>
</svg>
