<?xml version="1.0" standalone="no"?>
<!DOCTYPE svg PUBLIC "-//W3C//DTD SVG 20010904//EN"
 "http://www.w3.org/TR/2001/REC-SVG-20010904/DTD/svg10.dtd">
<svg version="1.0" xmlns="http://www.w3.org/2000/svg"
 width="260.000000pt" height="260.000000pt" viewBox="0 0 260.000000 260.000000"
 preserveAspectRatio="xMidYMid meet">
<metadata>
Created by potrace 1.14, written by Peter Selinger 2001-2017
</metadata>
<g transform="translate(0.000000,260.000000) scale(0.100000,-0.100000)"
fill="#000000" stroke="none">
<path d="M537 1332 c-125 -328 -227 -600 -227 -604 0 -5 35 -8 79 -8 l79 0 55
153 55 152 255 3 255 2 20 -52 c11 -29 36 -99 57 -155 l38 -103 82 0 82 0
-231 605 -231 605 -70 0 -70 0 -228 -598z m403 109 l97 -266 -98 -3 c-54 -1
-145 -1 -202 0 l-104 3 101 279 c55 153 102 273 105 265 2 -7 48 -132 101
-278z"/>
<path d="M1786 1629 c-145 -20 -285 -136 -286 -236 0 -22 4 -23 73 -23 l74 0
15 39 c23 59 81 92 167 99 132 9 201 -51 201 -178 l0 -60 -62 0 c-106 0 -244
-19 -300 -40 -109 -41 -176 -124 -185 -232 -8 -77 11 -139 59 -193 105 -119
295 -135 439 -36 l57 38 8 -41 9 -41 83 -3 c48 -2 82 1 82 7 0 5 -5 22 -12 38
-8 19 -14 133 -17 343 -6 303 -7 317 -29 362 -59 120 -204 180 -376 157z m244
-572 l0 -103 -37 -36 c-114 -111 -301 -103 -347 13 -33 81 10 173 92 200 42
14 137 25 230 28 l62 1 0 -103z"/>
</g>
</svg>
